<?xml version="1.0" encoding="UTF-8" standalone="no"?>
<svg
   xmlns:dc="http://purl.org/dc/elements/1.1/"
   xmlns:cc="http://creativecommons.org/ns#"
   xmlns:rdf="http://www.w3.org/1999/02/22-rdf-syntax-ns#"
   xmlns:svg="http://www.w3.org/2000/svg"
   xmlns="http://www.w3.org/2000/svg"
   xmlns:sodipodi="http://sodipodi.sourceforge.net/DTD/sodipodi-0.dtd"
   xmlns:inkscape="http://www.inkscape.org/namespaces/inkscape"
   width="1024"
   height="276.742"
   viewBox="0 0 1024 276.742"
   version="1.1"
   id="svg4"
   sodipodi:docname="logo.svg"
   inkscape:version="1.0.1 (0767f8302a, 2020-10-17)">
  <metadata
     id="metadata10">
    <rdf:RDF>
      <cc:Work
         rdf:about="">
        <dc:format>image/svg+xml</dc:format>
        <dc:type
           rdf:resource="http://purl.org/dc/dcmitype/StillImage" />
      </cc:Work>
    </rdf:RDF>
  </metadata>
  <defs
     id="defs8" />
  <sodipodi:namedview
     pagecolor="#ffffff"
     bordercolor="#666666"
     borderopacity="1"
     objecttolerance="10"
     gridtolerance="10"
     guidetolerance="10"
     inkscape:pageopacity="0"
     inkscape:pageshadow="2"
     inkscape:window-width="2510"
     inkscape:window-height="1376"
     id="namedview6"
     showgrid="false"
     inkscape:zoom="0.51147199"
     inkscape:cx="345.28924"
     inkscape:cy="390.52188"
     inkscape:window-x="1416"
     inkscape:window-y="27"
     inkscape:window-maximized="1"
     inkscape:current-layer="svg4" />
  <path
     d="m 57.82775,258.904 c -15.404,2.705 -31.079,3.516 -47.294,5.676 l -49.458,-144.856 v 151.073 c -15.404,1.621 -29.457,3.783 -44.051,5.945 V 0 h 41.08 l 56.212,157.021 V 0 h 43.511 z m 85.131,-157.558 c 16.757,0 42.431,-0.811 57.835,-0.811 v 43.24 c -19.189,0 -41.619,0 -57.835,0.811 v 64.322 c 25.405,-1.621 50.809,-3.785 76.482,-4.596 v 41.617 l -119.724,9.461 V 0 h 119.724 v 43.241 h -76.482 z m 237.284,-58.104 h -44.862 V 242.15 c -14.594,0 -29.188,0 -43.239,0.539 V 43.242 h -44.862 V 0 h 132.965 z m 70.266,55.132 h 59.187 v 43.24 h -59.187 v 98.104 h -42.433 V 0 h 120.808 v 43.241 h -78.375 z m 148.641,103.507 c 24.594,0.539 49.456,2.434 73.51,3.783 v 42.701 c -38.646,-2.434 -77.293,-4.863 -116.75,-5.676 V 0 h 43.24 z m 109.994,49.457 c 13.783,0.812 28.377,1.623 42.43,3.242 V 0 h -42.43 z M 941.02475,0 l -54.863,131.615 54.863,145.127 c -16.217,-2.162 -32.432,-5.135 -48.648,-7.838 l -31.078,-79.994 -31.617,73.51 c -15.678,-2.705 -30.812,-3.516 -46.484,-5.678 l 55.672,-126.75 L 788.60075,0 h 46.482 l 28.377,72.699 30.27,-72.699 z"
     fill="#d81f26"
     id="path2" />
  <circle
     style="fill:none;stroke:#0000d2;stroke-width:3.28248;stroke-miterlimit:4;stroke-dasharray:none"
     id="path835"
     cx="429.02475"
     cy="4668.6714"
     r="4425.1294" />
  <text
     xml:space="preserve"
     style="font-style:normal;font-weight:normal;font-size:192px;line-height:1.25;font-family:bebas;fill:#d81f26;fill-opacity:1;stroke:none;-inkscape-font-specification:bebas;font-stretch:normal;font-variant:normal;"
     x="173.00375"
     y="-363.37741"
     id="text841"><tspan
       sodipodi:role="line"
       id="tspan839"
       x="173.00375"
       y="-363.37741"
       style="font-size:192px;fill:#d81f26;fill-opacity:1;-inkscape-font-specification:bebas;font-family:bebas;font-weight:normal;font-style:normal;font-stretch:normal;font-variant:normal;">FAKEFLIX</tspan></text>
</svg>
